HIERARCHY
ROOT Hips
{
	OFFSET 0.000000 0.000000 0.000000 
	CHANNELS 6 Xposition Yposition Zposition Yrotation Xrotation Zrotation
	JOINT Spine
	{
		OFFSET 0.000000 0.072080 0.012321 
		CHANNELS 3 Xrotation Yrotation Zrotation
		JOINT Spine1
		{
			OFFSET 0.000000 0.126984 -0.001294 
			CHANNELS 3 Xrotation Yrotation Zrotation
			JOINT Spine2
			{
				OFFSET 0.000000 0.106559 -0.010096 
				CHANNELS 3 Xrotation Yrotation Zrotation
				JOINT Neck
				{
					OFFSET 0.000000 0.108417 -0.034017 
					CHANNELS 3 Xrotation Yrotation Zrotation
					JOINT Neck1
					{
						OFFSET 0.000000 0.033906 0.007241 
						CHANNELS 3 Xrotation Yrotation Zrotation
						JOINT Head
						{
							OFFSET 0.000000 0.031458 0.006707 
							CHANNELS 3 Xrotation Yrotation Zrotation
							End Site
							{
								OFFSET 0.000000 0.179920 0.000962 
							}
						}
					}
				}
				JOINT LeftShoulder
				{
					OFFSET 0.048002 0.079586 -0.029634 
					CHANNELS 3 Zrotation Xrotation Yrotation
					JOINT LeftArm
					{
						OFFSET 0.096243 -0.008695 -0.014012 
						CHANNELS 3 Zrotation Xrotation Yrotation
						JOINT LeftForeArm
						{
							OFFSET 0.216305 0.000000 0.000000 
							CHANNELS 3 Xrotation Zrotation Yrotation
							JOINT LeftHand
							{
								OFFSET 0.217764 0.000000 0.000000 
								CHANNELS 3 Zrotation Yrotation Xrotation
								JOINT LeftHandThumb1
								{
									OFFSET 0.018582 -0.007835 0.020476 
									CHANNELS 3 Zrotation Xrotation Yrotation
									JOINT LeftHandThumb2
									{
										OFFSET 0.026269 -0.007835 0.022186 
										CHANNELS 3 Zrotation Xrotation Yrotation
										JOINT LeftHandThumb3
										{
											OFFSET 0.035170 -0.010504 0.017018 
											CHANNELS 3 Zrotation Xrotation Yrotation
											End Site
											{
												OFFSET 0.020312 -0.007813 0.007813 
											}
										}
									}
								}
								JOINT LeftHandMiddle1
								{
									OFFSET 0.081749 0.004803 0.003358 
									CHANNELS 3 Zrotation Xrotation Yrotation
									JOINT LeftHandMiddle2
									{
										OFFSET 0.045251 0.000000 0.000000 
										CHANNELS 3 Zrotation Xrotation Yrotation
										JOINT LeftHandMiddle3
										{
											OFFSET 0.029009 0.000000 0.000000 
											CHANNELS 3 Zrotation Xrotation Yrotation
											End Site
											{
												OFFSET 0.017969 0.000000 0.000000 
											}
										}
									}
								}
								JOINT LeftHandIndex1
								{
									OFFSET 0.081207 0.004803 0.021137 
									CHANNELS 3 Zrotation Xrotation Yrotation
									JOINT LeftHandIndex2
									{
										OFFSET 0.043354 0.000000 0.000000 
										CHANNELS 3 Zrotation Xrotation Yrotation
										JOINT LeftHandIndex3
										{
											OFFSET 0.026493 0.000000 0.000000 
											CHANNELS 3 Zrotation Xrotation Yrotation
											End Site
											{
												OFFSET 0.019531 0.000000 0.000000 
											}
										}
									}
								}
								JOINT LeftHandRing1
								{
									OFFSET 0.080666 0.002509 -0.014652 
									CHANNELS 3 Zrotation Xrotation Yrotation
									JOINT LeftHandRing2
									{
										OFFSET 0.042541 0.000000 0.000000 
										CHANNELS 3 Zrotation Xrotation Yrotation
										JOINT LeftHandRing3
										{
											OFFSET 0.029009 0.000000 0.000000 
											CHANNELS 3 Zrotation Xrotation Yrotation
											End Site
											{
												OFFSET 0.015625 0.000000 0.000000 
											}
										}
									}
								}
								JOINT LeftHandPinky1
								{
									OFFSET 0.078227 -0.000612 -0.030993 
									CHANNELS 3 Zrotation Xrotation Yrotation
									JOINT LeftHandPinky2
									{
										OFFSET 0.028721 0.000000 0.000000 
										CHANNELS 3 Zrotation Xrotation Yrotation
										JOINT LeftHandPinky3
										{
											OFFSET 0.021963 0.000000 0.000000 
											CHANNELS 3 Zrotation Xrotation Yrotation
											End Site
											{
												OFFSET 0.022656 0.000000 0.000000 
											}
										}
									}
								}
							}
						}
					}
				}
				JOINT RightShoulder
				{
					OFFSET -0.047970 0.079586 -0.029634 
					CHANNELS 3 Zrotation Xrotation Yrotation
					JOINT RightArm
					{
						OFFSET -0.096274 -0.008695 -0.014012 
						CHANNELS 3 Zrotation Xrotation Yrotation
						JOINT RightForeArm
						{
							OFFSET -0.216305 0.000000 0.000000 
							CHANNELS 3 Xrotation Zrotation Yrotation
							JOINT RightHand
							{
								OFFSET -0.217764 0.000000 0.000000 
								CHANNELS 3 Zrotation Yrotation Xrotation
								JOINT RightHandThumb1
								{
									OFFSET -0.019670 -0.007318 0.019638 
									CHANNELS 3 Zrotation Xrotation Yrotation
									JOINT RightHandThumb2
									{
										OFFSET -0.025498 -0.008492 0.023179 
										CHANNELS 3 Zrotation Xrotation Yrotation
										JOINT RightHandThumb3
										{
											OFFSET -0.034504 -0.010705 0.016680 
											CHANNELS 3 Zrotation Xrotation Yrotation
											End Site
											{
												OFFSET -0.020312 -0.007813 0.007813 
											}
										}
									}
								}
								JOINT RightHandIndex1
								{
									OFFSET -0.081770 0.003825 0.021187 
									CHANNELS 3 Zrotation Xrotation Yrotation
									JOINT RightHandIndex2
									{
										OFFSET -0.042006 0.000000 0.000000 
										CHANNELS 3 Zrotation Xrotation Yrotation
										JOINT RightHandIndex3
										{
											OFFSET -0.026449 0.000000 0.000000 
											CHANNELS 3 Zrotation Xrotation Yrotation
											End Site
											{
												OFFSET -0.020312 0.000000 0.000000 
											}
										}
									}
								}
								JOINT RightHandMiddle1
								{
									OFFSET -0.084059 0.003825 0.003342 
									CHANNELS 3 Zrotation Xrotation Yrotation
									JOINT RightHandMiddle2
									{
										OFFSET -0.043881 0.000000 0.000000 
										CHANNELS 3 Zrotation Xrotation Yrotation
										JOINT RightHandMiddle3
										{
											OFFSET -0.029191 0.000000 0.000000 
											CHANNELS 3 Zrotation Xrotation Yrotation
											End Site
											{
												OFFSET -0.017969 0.000000 0.000000 
											}
										}
									}
								}
								JOINT RightHandRing1
								{
									OFFSET -0.081798 0.003030 -0.015127 
									CHANNELS 3 Zrotation Xrotation Yrotation
									JOINT RightHandRing2
									{
										OFFSET -0.042198 0.000000 0.000000 
										CHANNELS 3 Zrotation Xrotation Yrotation
										JOINT RightHandRing3
										{
											OFFSET -0.026497 0.000000 0.000000 
											CHANNELS 3 Zrotation Xrotation Yrotation
											End Site
											{
												OFFSET -0.017188 0.000000 0.000000 
											}
										}
									}
								}
								JOINT RightHandPinky1
								{
									OFFSET -0.077902 -0.000930 -0.030891 
									CHANNELS 3 Zrotation Xrotation Yrotation
									JOINT RightHandPinky2
									{
										OFFSET -0.028538 0.000000 0.000000 
										CHANNELS 3 Zrotation Xrotation Yrotation
										JOINT RightHandPinky3
										{
											OFFSET -0.021734 0.000000 0.000000 
											CHANNELS 3 Zrotation Xrotation Yrotation
											End Site
											{
												OFFSET -0.022656 0.000000 0.000000 
											}
										}
									}
								}
							}
						}
					}
				}
			}
		}
	}
	JOINT LeftUpLeg
	{
		OFFSET 0.075264 -0.025573 0.000000 
		CHANNELS 3 Xrotation Yrotation Zrotation
		JOINT LeftLeg
		{
			OFFSET 0.000000 -0.326016 -0.013516 
			CHANNELS 3 Xrotation Yrotation Zrotation
			JOINT LeftFoot
			{
				OFFSET 0.000098 -0.306172 -0.006623 
				CHANNELS 3 Xrotation Yrotation Zrotation
				JOINT LeftToeBase
				{
					OFFSET -0.001432 -0.095259 0.064705 
					CHANNELS 3 Xrotation Yrotation Zrotation
					End Site
					{
						OFFSET 0.000000 0.000000 0.079438 
					}
				}
			}
		}
	}
	JOINT RightUpLeg
	{
		OFFSET -0.075264 -0.025573 0.000000 
		CHANNELS 3 Xrotation Yrotation Zrotation
		JOINT RightLeg
		{
			OFFSET 0.000000 -0.326016 -0.013516 
			CHANNELS 3 Xrotation Yrotation Zrotation
			JOINT RightFoot
			{
				OFFSET 0.000098 -0.306172 -0.006623 
				CHANNELS 3 Xrotation Yrotation Zrotation
				JOINT RightToeBase
				{
					OFFSET -0.001432 -0.095259 0.064705 
					CHANNELS 3 Xrotation Yrotation Zrotation
					End Site
					{
						OFFSET 0.000025 0.000000 0.079438 
					}
				}
			}
		}
	}
}
MOTION
Frames: 6
Frame Time: 0.033333
-0.030030 0.733760 -0.080450 47.918800 -0.892700 -4.928900 1.230800 1.618500 1.604300 0.843300 3.596500 4.848400 1.074000 4.084100 4.697000 0.895800 5.118500 -5.256700 -0.000000 0.000000 -0.000000 -2.209900 15.628400 -16.846001 -4.267500 4.619700 -13.567000 -87.878304 -8.580200 6.258200 0.000000 -0.000000 -5.655100 -18.982000 0.524800 -15.736200 5.121100 24.091600 8.421000 -6.813900 -9.140300 16.205999 3.103100 -2.176600 4.564500 -11.287000 -0.636200 5.317600 -33.510502 -0.457900 0.598000 -12.269600 -0.015200 0.240000 -1.836800 0.275400 1.716400 -20.847300 -0.256400 0.708000 -10.311000 -0.017700 -0.228200 -22.642401 -1.321400 6.860500 -40.244099 0.184700 0.277300 -19.301901 0.237000 -0.036400 -32.667702 -2.713800 11.219500 -45.960701 -0.183800 -0.366800 -20.870800 -0.173100 0.775200 4.382300 4.726100 3.524100 66.029503 -1.664400 -1.431800 0.000000 -0.000000 18.030001 9.249700 -4.249900 -8.264400 -6.708000 24.429001 -6.901900 7.366700 -9.622800 -15.787500 -1.508200 -2.218100 -4.288700 5.476100 0.009700 -1.762700 20.620399 -0.330700 -1.132600 13.721000 -0.103600 0.953600 13.639000 -0.771200 -5.151600 33.640202 -0.661000 -1.262100 16.043900 -0.076200 -0.402800 24.635700 -1.530500 -7.321900 40.347801 -0.100500 -1.055000 17.739500 0.083000 1.507800 34.217999 -2.922000 -11.243600 45.666801 -0.544900 -0.494000 21.954100 -0.423500 1.801500 -26.416100 32.243900 21.575701 35.882401 -1.520000 2.502000 -15.722000 21.073500 -1.074500 -1.257000 -0.000000 -0.000000 -12.331800 -9.380400 11.941400 18.430599 -9.787700 -3.438900 -8.411000 -29.851200 -6.529800 -0.307700 0.000000 -0.000000 
-0.023014 0.734487 -0.086686 50.492802 -0.892700 -4.923400 1.299500 0.939200 1.741200 0.875800 2.492800 4.705900 1.012300 2.978200 4.576100 1.214500 5.420300 -4.686400 -0.000000 0.000000 -0.000000 -1.331700 17.701000 -17.431499 -3.745600 4.536300 -13.051400 -89.123299 -7.304300 7.021500 -0.000000 0.000000 -4.793200 -20.903900 1.825600 -15.300500 4.680000 24.095699 9.669200 -6.861000 -8.992400 15.592100 3.296800 -2.147800 4.408400 -10.122500 -0.575800 5.464700 -33.450802 -0.457200 0.598600 -12.212500 -0.015200 0.240100 -0.057800 0.352800 1.683900 -20.900600 -0.257000 0.707700 -10.364200 -0.017700 -0.228300 -21.642500 -1.280400 7.050600 -40.216202 0.184500 0.277300 -19.277000 0.236800 -0.036400 -31.732000 -2.665100 11.204800 -46.058399 -0.184000 -0.367300 -20.968500 -0.173800 0.774700 4.437500 4.730400 3.792700 65.425697 -1.853500 -0.810900 -0.000000 0.000000 18.692101 7.564500 -3.062300 -8.412200 -6.718200 24.404699 -6.688200 7.381800 -9.727900 -15.852400 -1.516600 -2.221300 -4.268000 5.595500 -0.004000 -1.731400 20.613100 -0.330600 -1.132500 13.713700 -0.103600 0.953700 13.768300 -0.778900 -5.149300 33.625301 -0.660600 -1.262000 16.028999 -0.076100 -0.402600 24.737400 -1.535300 -7.297800 40.310501 -0.100200 -1.054400 17.701401 0.082800 1.508500 34.335400 -2.923100 -11.162700 45.626801 -0.544300 -0.493600 21.914101 -0.422900 1.802100 -26.916100 35.068001 21.105200 34.500401 0.320800 3.912900 -14.451700 21.008900 -2.521000 -1.147500 0.000000 -0.000000 -12.506600 -10.412800 9.654100 19.653999 -9.770400 -1.587800 -9.067200 -29.906601 -6.025300 -0.288800 0.000000 -0.000000 
-0.015268 0.735162 -0.091865 53.066898 -0.892700 -4.918700 1.377000 0.166600 1.922800 0.904300 1.350600 4.571400 0.946100 1.834000 4.462400 1.613900 5.812600 -4.145400 -0.000000 0.000000 -0.000000 -0.445700 19.481199 -17.800501 -3.306200 4.490300 -12.246900 -90.066200 -5.642600 7.985900 -0.000000 0.000000 -4.568300 -22.326799 2.559200 -15.162800 4.336500 24.331600 10.374700 -6.784200 -8.870400 15.099900 3.331400 -2.136400 4.311700 -9.461400 -0.541400 5.537500 -33.396900 -0.456500 0.599200 -12.159900 -0.015100 0.240300 0.969100 0.395500 1.660200 -20.915300 -0.257200 0.707600 -10.379000 -0.017700 -0.228300 -21.041800 -1.256100 7.174400 -40.185699 0.184400 0.277300 -19.248501 0.236500 -0.036400 -31.163000 -2.630900 11.166500 -46.080700 -0.184000 -0.367400 -20.990801 -0.173900 0.774500 4.431800 4.731300 3.943600 64.955498 -1.906800 -0.353400 0.000000 -0.000000 19.413200 6.369000 -2.152300 -8.558700 -6.760400 24.327700 -6.223600 7.443100 -9.910700 -16.061001 -1.528700 -2.225800 -4.238400 5.956500 -0.027700 -1.723600 20.641600 -0.331100 -1.132800 13.742200 -0.103700 0.953200 14.108000 -0.799500 -5.171900 33.638802 -0.660900 -1.262100 16.042999 -0.076200 -0.402800 25.068300 -1.552800 -7.248700 40.280602 -0.099900 -1.053900 17.670000 0.082700 1.509100 34.673000 -2.933800 -11.035400 45.590302 -0.543600 -0.493200 21.877600 -0.422300 1.802600 -26.918100 37.159000 20.929199 33.222198 2.605400 3.984600 -13.712200 19.594900 -3.366400 -0.453400 0.000000 0.000000 -12.346600 -11.430900 6.723400 20.710800 -9.799000 1.783900 -10.202700 -29.976200 -6.455100 -0.733900 0.000000 -0.000000 
-0.007254 0.735759 -0.095855 55.641201 -0.892700 -4.915100 1.441800 -0.665300 2.152400 0.916000 0.234300 4.513200 0.869400 0.717500 4.423000 2.067000 6.267100 -3.688300 -0.000000 0.000000 -0.000000 0.470300 20.927999 -17.941401 -3.049300 4.479800 -11.525500 -90.438599 -3.815600 8.668900 -0.000000 0.000000 -4.401400 -23.007299 2.983400 -15.274300 4.057800 24.804701 10.538700 -6.650400 -8.809500 14.867000 3.096600 -2.151600 4.284300 -9.515600 -0.544200 5.530300 -33.367100 -0.456100 0.599500 -12.130100 -0.015100 0.240400 0.928300 0.396900 1.667800 -20.896999 -0.257000 0.707700 -10.360700 -0.017700 -0.228300 -21.038000 -1.255700 7.171000 -40.164200 0.184300 0.277300 -19.226999 0.236300 -0.036400 -31.134399 -2.627200 11.151300 -46.039299 -0.183900 -0.367200 -20.949400 -0.173600 0.774800 4.609400 4.744300 3.703300 64.477402 -1.811100 0.070700 -0.000000 0.000000 20.118799 5.883800 -1.640100 -8.726700 -6.787300 24.273800 -5.831800 7.497200 -10.054000 -16.258900 -1.538700 -2.229600 -4.213900 6.277800 -0.044400 -1.738500 20.688101 -0.332000 -1.133500 13.788700 -0.103900 0.952300 14.402500 -0.817500 -5.211700 33.662399 -0.661500 -1.262300 16.067600 -0.076400 -0.403200 25.385401 -1.570200 -7.214600 40.278500 -0.099900 -1.053900 17.666901 0.082700 1.509200 34.995201 -2.948600 -10.977200 45.587799 -0.543600 -0.493200 21.875099 -0.422300 1.802700 -26.502001 38.432598 20.744600 32.381500 3.873000 3.467200 -13.579400 17.679001 -3.542400 -0.260100 -0.000000 -0.000000 -12.042300 -12.106900 3.821300 21.670500 -9.835100 5.375300 -10.924200 -29.955200 -6.997800 -2.034600 0.000000 0.000000 
0.000509 0.736250 -0.098488 58.215599 -0.892700 -4.912200 1.481400 -1.484300 2.398100 0.906100 -0.779400 4.566100 0.783200 -0.294000 4.491600 2.524300 6.708500 -3.316500 -0.000000 0.000000 -0.000000 1.377400 21.952499 -17.798500 -2.989400 4.480000 -11.323200 -90.107498 -2.321000 8.718200 0.000000 0.000000 -3.965700 -22.771400 3.337500 -15.696900 3.866000 25.275499 10.396400 -6.572000 -8.822900 14.933400 2.704600 -2.183400 4.307800 -10.058700 -0.572600 5.473500 -33.368198 -0.456200 0.599500 -12.130300 -0.015100 0.240300 0.146100 0.373200 1.703700 -20.865801 -0.256600 0.707900 -10.329500 -0.017700 -0.228300 -21.467501 -1.272300 7.065600 -40.157398 0.184200 0.277300 -19.218599 0.236200 -0.036400 -31.492300 -2.648100 11.170500 -45.980202 -0.183800 -0.366900 -20.890301 -0.173200 0.775100 5.109300 4.776000 3.046700 63.997200 -1.622200 0.578900 0.000000 -0.000000 20.597700 6.224000 -1.681400 -8.950900 -6.722100 24.356899 -5.867600 7.465500 -10.048100 -16.246901 -1.543300 -2.231300 -4.202500 6.230700 -0.037700 -1.757200 20.719601 -0.332700 -1.133900 13.820200 -0.104100 0.951700 14.370700 -0.816000 -5.243900 33.656101 -0.661300 -1.262200 16.062201 -0.076300 -0.403100 25.391701 -1.571800 -7.238800 40.301300 -0.100100 -1.054300 17.690500 0.082800 1.508700 35.023499 -2.957600 -11.076500 45.632198 -0.544300 -0.493700 21.919500 -0.422900 1.802000 -25.744900 38.667198 20.178699 32.168201 2.829100 3.011400 -14.245300 16.672701 -2.751400 -0.432800 -0.000000 0.000000 -11.832800 -12.117500 1.677100 22.815399 -9.762600 7.649100 -10.841900 -29.773800 -6.512300 -4.000900 0.000000 -0.000000 
0.007496 0.736620 -0.099544 60.790100 -0.892700 -4.909400 1.492300 -2.211200 2.616000 0.878000 -1.623000 4.727700 0.693700 -1.132600 4.664900 2.926400 7.043800 -2.990500 -0.000000 0.000000 -0.000000 2.179100 22.443300 -17.306900 -3.017300 4.456800 -11.784300 -89.161102 -1.483200 8.193800 -0.000000 0.000000 -3.441700 -21.637501 3.716600 -16.550301 3.849600 25.449400 10.150700 -6.608500 -8.896700 15.234900 2.398600 -2.211700 4.361800 -10.654400 -0.603500 5.401200 -33.388699 -0.456400 0.599300 -12.149400 -0.015100 0.240300 -0.743600 0.345900 1.742900 -20.837400 -0.256300 0.708100 -10.301100 -0.017700 -0.228200 -21.971399 -1.291600 6.942400 -40.158401 0.184200 0.277300 -19.217699 0.236200 -0.036400 -31.917400 -2.671800 11.185000 -45.936199 -0.183700 -0.366700 -20.846300 -0.172900 0.775300 5.835100 4.819300 2.233300 63.702202 -1.395600 1.147100 -0.000000 0.000000 20.686001 7.363400 -2.305000 -9.267500 -6.527100 24.626699 -6.349400 7.315100 -9.913200 -15.968800 -1.545200 -2.232100 -4.197900 5.757900 -0.008900 -1.756300 20.711201 -0.332500 -1.133800 13.811800 -0.104100 0.951900 13.976000 -0.792400 -5.244700 33.589699 -0.659800 -1.261800 15.995900 -0.075900 -0.402000 25.016600 -1.553500 -7.323600 40.315899 -0.100200 -1.054500 17.707800 0.082800 1.508400 34.701500 -2.955000 -11.300400 45.696999 -0.545500 -0.494300 21.984301 -0.423900 1.801100 -24.493099 37.620499 18.923500 32.013401 0.974400 2.787600 -14.826800 17.258900 -1.952200 -0.432800 -0.000000 -0.000000 -11.539300 -11.256400 0.847900 23.857201 -9.724500 7.799900 -10.501900 -28.287901 -5.048100 -5.925500 0.000000 -0.000000 
